<svg class="icon icon-custom icon-clean-cart" width="24" height="21" viewBox="0 0 24 21" fill="none" xmlns="http://www.w3.org/2000/svg">
<rect width="24" height="21" fill="white"></rect>
<path d="M23 17.1941V20H1V17.1941C1 15.9658 1.62058 14.8874 2.55599 14.2726C2.67413 14.213 2.78968 14.1461 2.90068 14.0745C3.69588 13.5574 4.28854 12.7385 4.52483 11.7738C4.9656 12.7285 5.85232 13.4577 7.53424 13.4577H16.4658C16.765 13.4577 17.0389 13.435 17.2895 13.3915C18.4489 13.1908 19.1129 12.5586 19.4752 11.7738C19.7115 12.7385 20.3041 13.5574 21.0993 14.0745C21.2103 14.1461 21.3259 14.213 21.444 14.2726C22.3794 14.8874 23 15.9658 23 17.1941V17.1941Z" stroke="black" stroke-miterlimit="10"></path>
<path d="M6.68006 13.3916C6.43403 13.8104 6.11271 14.173 5.75244 14.4901C5.40255 14.7985 5.028 15.0835 4.73588 15.4548C4.4626 15.8027 4.27499 16.2155 4.19969 16.6564C4.11401 17.1588 4.15231 17.698 4.17438 18.2051C4.19969 18.7966 4.22501 19.4361 4.41975 19.9981" stroke="black" stroke-width="0.5" stroke-miterlimit="10"></path>
<path d="M9.40245 13.457C9.11099 13.8344 8.79226 14.1883 8.45925 14.5275C8.13793 14.8546 7.80621 15.1744 7.53098 15.5457C7.25574 15.917 7.06684 16.3264 6.9883 16.784C6.90651 17.2657 6.95974 17.7534 6.99804 18.2365C7.04477 18.8252 7.1032 19.4126 7.17979 19.998" stroke="black" stroke-width="0.5" stroke-miterlimit="10"></path>
<path d="M17.2891 13.3907C17.5338 13.8116 17.8551 14.1762 18.2154 14.4946C18.5757 14.8131 18.9411 15.0894 19.2339 15.4593C19.5091 15.8066 19.7019 16.22 19.7779 16.6622C19.8648 17.1673 19.8259 17.7119 19.8032 18.2217C19.7766 18.8084 19.7493 19.4373 19.5617 19.9966" stroke="black" stroke-width="0.5" stroke-miterlimit="10"></path>
<path d="M14.5684 13.4551C15.1344 14.1649 15.805 14.773 16.3872 15.4661C16.6748 15.808 16.8825 16.2288 16.9656 16.6737C17.0591 17.1701 17.0234 17.7073 16.991 18.2084C16.9527 18.8038 16.8754 19.3959 16.8027 19.988" stroke="black" stroke-width="0.5" stroke-miterlimit="10"></path>
<path d="M15.9955 5.46031C15.9955 5.70851 15.9773 7.12949 15.9422 7.36632H8.05323C8.01818 7.12949 8 5.70851 8 5.46031C8 2.997 9.78968 1 11.9974 1C14.2051 1 15.9955 2.997 15.9955 5.46031Z" stroke="black" stroke-miterlimit="10"></path>
<path d="M19.4757 11.7738C19.1135 12.5585 18.4494 13.1908 17.29 13.3915C17.0395 13.4349 16.7655 13.4577 16.4663 13.4577H7.53477C5.85285 13.4577 4.96613 12.7285 4.52536 11.7738C3.69251 9.97147 4.45396 7.36633 4.45396 7.36633H19.5471C19.5471 7.36633 20.3085 9.97147 19.4757 11.7738V11.7738Z" stroke="black" stroke-miterlimit="10"></path>
</svg>