<svg width="64"  height="64" viewBox="0 0 64 64" fill="none" xmlns="http://www.w3.org/2000/svg">
<g clip-path="url(#clip0_647_7)">
<path d="M32.012 59.616C30.893 59.095 29.647 58.475 28.305 57.757C24.1908 55.5677 20.2776 53.0198 16.611 50.143C6.31604 42 0.266038 32.6 0.254038 22.076C0.244038 12.358 7.87104 4.50599 17.232 4.49999C19.4462 4.49989 21.6382 4.94112 23.6799 5.7979C25.7216 6.65469 27.572 7.90984 29.123 9.48999L31.96 12.379L34.787 9.47899C36.3328 7.89446 38.1792 6.6343 40.2181 5.77231C42.257 4.91032 44.4474 4.46383 46.661 4.45899C56.029 4.44899 63.669 12.274 63.682 21.998C63.697 32.531 57.66 41.958 47.37 50.126C43.7144 53.0065 39.8124 55.5597 35.709 57.756C34.369 58.472 33.127 59.094 32.012 59.616Z" fill="white" stroke="black"/>
</g>
<defs>
<clipPath id="clip0_647_7">
<rect width="64" height="64" fill="white"/>
</clipPath>
</defs>
</svg>
