<svg width="561" height="97" viewBox="0 0 561 97" fill="none" xmlns="http://www.w3.org/2000/svg">
<path d="M17.5685 34.456L10.9125 95H0.0325065L10.9125 0.919998L46.7525 65.816L82.5925 0.919998L93.4725 95H82.5925L75.9365 34.456L46.7525 86.68L17.5685 34.456ZM149.737 5.39999H160.617V95H149.737V5.39999ZM228.089 95V84.76H273.273V95H228.089ZM228.089 15.64V5.39999H273.273V15.64H228.089ZM228.089 51.48V41.24H270.713V51.48H228.089ZM222.073 5.39999H232.953V95H222.073V5.39999ZM324.448 15.64V5.39999H381.408V15.64H358.368V95H347.488V15.64H324.448ZM433.868 5.39999H444.748V95H433.868V5.39999ZM509.531 67.864C511.579 71.448 513.712 74.6053 515.931 77.336C518.235 80.0667 520.795 82.2 523.611 83.736C526.427 85.272 529.627 86.04 533.211 86.04C537.989 86.04 541.829 84.7173 544.731 82.072C547.632 79.4267 549.083 76.056 549.083 71.96C549.083 67.9493 548.144 64.7493 546.267 62.36C544.389 59.9707 541.915 58.0507 538.843 56.6C535.856 55.064 532.656 53.6987 529.243 52.504C527.024 51.736 524.549 50.7547 521.819 49.56C519.088 48.28 516.485 46.7013 514.011 44.824C511.536 42.8613 509.488 40.472 507.867 37.656C506.331 34.84 505.563 31.384 505.563 27.288C505.563 22.8507 506.672 18.8827 508.891 15.384C511.109 11.8853 514.181 9.15466 518.107 7.19199C522.032 5.14399 526.512 4.12 531.547 4.12C536.411 4.12 540.635 5.05866 544.219 6.936C547.888 8.72799 551.003 11.0747 553.563 13.976C556.123 16.792 558.128 19.7787 559.579 22.936L550.235 28.312C549.125 26.0933 547.717 23.9173 546.011 21.784C544.304 19.6507 542.213 17.9013 539.739 16.536C537.349 15.1707 534.405 14.488 530.907 14.488C526.043 14.488 522.501 15.6827 520.283 18.072C518.064 20.376 516.955 22.9787 516.955 25.88C516.955 28.3547 517.595 30.6587 518.875 32.792C520.155 34.84 522.288 36.8027 525.275 38.68C528.347 40.472 532.485 42.264 537.691 44.056C540.08 44.9093 542.597 46.0187 545.243 47.384C547.888 48.7493 550.32 50.4987 552.539 52.632C554.843 54.68 556.72 57.1973 558.171 60.184C559.621 63.0853 560.347 66.584 560.347 70.68C560.347 74.6053 559.579 78.1467 558.043 81.304C556.592 84.4613 554.544 87.1493 551.899 89.368C549.339 91.5867 546.395 93.2933 543.067 94.488C539.824 95.6827 536.411 96.28 532.827 96.28C527.963 96.28 523.44 95.256 519.259 93.208C515.163 91.0747 511.536 88.3013 508.379 84.888C505.307 81.3893 502.789 77.6773 500.827 73.752L509.531 67.864Z" fill="black"/>
</svg>
