<svg class="icon icon-custom icon-clean-account" width="24" height="21" viewBox="0 0 24 21" fill="none" xmlns="http://www.w3.org/2000/svg">
    <rect width="24" height="21" fill="white"></rect>
    <path d="M19.8333 20V17.1852C19.8333 15.6921 19.3885 14.2602 18.5967 13.2044C17.8049 12.1487 16.7309 11.5555 15.6111 11.5555H8.22222C7.10242 11.5555 6.02848 12.1487 5.23666 13.2044C4.44484 14.2602 4 15.6921 4 17.1852V20" stroke="black" stroke-linecap="round" stroke-linejoin="round"></path>
    <path d="M11.9166 9.44444C14.2484 9.44444 16.1388 7.55409 16.1388 5.22222C16.1388 2.89035 14.2484 1 11.9166 1C9.58469 1 7.69434 2.89035 7.69434 5.22222C7.69434 7.55409 9.58469 9.44444 11.9166 9.44444Z" stroke="black" stroke-linecap="round" stroke-linejoin="round"></path>
    <path d="M4 20H19.5" stroke="black"></path>
    </svg>